<svg width="60" height="60" viewBox="0 0 60 60" fill="none" xmlns="http://www.w3.org/2000/svg">
<path fill-rule="evenodd" clip-rule="evenodd" d="M7.5 6.875C7.5 5.05164 8.22433 3.30295 9.51364 2.01364C10.803 0.724328 12.5516 0 14.375 0L50.625 0C51.1223 0 51.5992 0.197544 51.9508 0.549175C52.3025 0.900805 52.5 1.37772 52.5 1.875V53.125C52.5 53.6223 52.3025 54.0992 51.9508 54.4508C51.5992 54.8025 51.1223 55 50.625 55H35.625C35.1277 55 34.6508 54.8025 34.2992 54.4508C33.9475 54.0992 33.75 53.6223 33.75 53.125C33.75 52.6277 33.9475 52.1508 34.2992 51.7992C34.6508 51.4475 35.1277 51.25 35.625 51.25H48.75V41.25H15C14.0054 41.25 13.0516 41.6451 12.3483 42.3484C11.6451 43.0516 11.25 44.0054 11.25 45V46.875C11.25 48.665 12.325 50.21 13.875 50.8875C14.3154 51.0961 14.6572 51.468 14.8281 51.9244C14.999 52.3808 14.9855 52.8857 14.7905 53.3323C14.5955 53.7789 14.2343 54.132 13.7834 54.3168C13.3325 54.5017 12.8274 54.5037 12.375 54.3225C10.9259 53.6901 9.69284 52.6486 8.82691 51.3257C7.96099 50.0029 7.49984 48.4561 7.5 46.875V6.875ZM48.75 3.75V37.5H15C13.635 37.5 12.3525 37.865 11.25 38.5025V6.875C11.25 5.15 12.65 3.75 14.375 3.75H48.75Z" fill="white"/>
<path d="M17.5 45.625C17.5 45.4592 17.5658 45.3003 17.6831 45.1831C17.8003 45.0658 17.9592 45 18.125 45H30.625C30.7908 45 30.9497 45.0658 31.0669 45.1831C31.1842 45.3003 31.25 45.4592 31.25 45.625V58.15C31.2494 58.265 31.2172 58.3777 31.1567 58.4755C31.0962 58.5734 31.0099 58.6526 30.9073 58.7046C30.8047 58.7565 30.6897 58.7792 30.5751 58.77C30.4604 58.7608 30.3505 58.7201 30.2575 58.6525L24.7425 54.6425C24.6357 54.5649 24.507 54.523 24.375 54.523C24.243 54.523 24.1143 54.5649 24.0075 54.6425L18.4925 58.65C18.3996 58.7175 18.29 58.7581 18.1755 58.7674C18.0611 58.7767 17.9463 58.7543 17.8438 58.7027C17.7412 58.651 17.6549 58.5721 17.5943 58.4746C17.5336 58.3771 17.501 58.2648 17.5 58.15V45.625Z" fill="white"/>
</svg>
