<svg width="60" height="60" viewBox="0 0 60 60" fill="none" xmlns="http://www.w3.org/2000/svg">
<path fill-rule="evenodd" clip-rule="evenodd" d="M7.50001 34.6866C7.49946 34.5642 7.52337 34.443 7.57035 34.33C7.61733 34.217 7.68643 34.1145 7.77358 34.0286C7.86072 33.9427 7.96417 33.8751 8.07782 33.8297C8.19148 33.7844 8.31305 33.7622 8.4354 33.7645L14.1319 33.8527C14.6484 33.8606 15.0647 34.2867 15.0616 34.8066L15.0056 44.0604C15.0045 44.1834 15.0278 44.3053 15.0741 44.4193C15.1203 44.5332 15.1887 44.6369 15.2753 44.7242C15.3618 44.8116 15.4648 44.8809 15.5783 44.9283C15.6918 44.9756 15.8136 45 15.9366 45H17.8134C18.062 44.9998 18.3003 44.9008 18.4759 44.7249C18.6515 44.549 18.7501 44.3106 18.75 44.062V12.188C18.7501 12.0647 18.7745 11.9426 18.8218 11.8287C18.8691 11.7148 18.9383 11.6114 19.0256 11.5243C19.1129 11.4372 19.2165 11.3681 19.3304 11.3211C19.4444 11.274 19.5665 11.2498 19.6899 11.25H29.0602C29.1835 11.2497 29.3058 11.2737 29.4198 11.3208C29.5339 11.3678 29.6375 11.4368 29.7248 11.524C29.8122 11.6112 29.8814 11.7147 29.9286 11.8287C29.9758 11.9427 30.0001 12.0648 30 12.1882V36.5618C29.9998 36.8104 30.0984 37.0489 30.274 37.2248C30.4496 37.4008 30.688 37.4998 30.9366 37.5H32.8134C32.9367 37.4998 33.0586 37.4754 33.1724 37.428C33.2862 37.3807 33.3895 37.3114 33.4764 37.2241C33.5634 37.1368 33.6323 37.0333 33.6793 36.9194C33.7262 36.8054 33.7503 36.6834 33.75 36.5602V27.1898C33.7495 27.0671 33.7735 26.9454 33.8206 26.8321C33.8677 26.7187 33.937 26.6159 34.0245 26.5297C34.1119 26.4435 34.2157 26.3757 34.3297 26.3302C34.4437 26.2847 34.5657 26.2625 34.6884 26.2648L40.3116 26.3524C40.4341 26.3547 40.5559 26.3326 40.6698 26.2872C40.7836 26.2418 40.8873 26.1742 40.9747 26.0883C41.0621 26.0023 41.1315 25.8998 41.1788 25.7867C41.226 25.6736 41.2503 25.5523 41.25 25.4297V19.6875C41.2502 19.5642 41.2746 19.4422 41.3219 19.3284C41.3692 19.2146 41.4385 19.1112 41.5258 19.0241C41.613 18.937 41.7166 18.868 41.8306 18.821C41.9445 18.774 42.0666 18.7498 42.1899 18.75H51.5602C51.809 18.7498 52.0478 18.8483 52.224 19.024C52.4002 19.1997 52.4995 19.4382 52.5 19.687V32.9302C52.4999 33.1784 52.4014 33.4165 52.226 33.5922C52.0506 33.7678 51.8126 33.8668 51.5644 33.8672H49.8028C49.6797 33.8669 49.5578 33.8424 49.4441 33.7951C49.3304 33.7477 49.2272 33.6784 49.1403 33.5911C49.0534 33.5038 48.9846 33.4003 48.9377 33.2864C48.8908 33.1725 48.8669 33.0505 48.8672 32.9273V23.557C48.8674 23.4338 48.8434 23.3118 48.7964 23.1979C48.7495 23.084 48.6805 22.9804 48.5936 22.8931C48.5066 22.8059 48.4033 22.7366 48.2895 22.6892C48.1758 22.6419 48.0538 22.6174 47.9306 22.6172H46.0538C45.8038 22.6179 45.5641 22.7166 45.3862 22.8921C45.2083 23.0676 45.1063 23.306 45.1022 23.5559L45.015 29.0613C45.0104 29.3114 44.908 29.5497 44.7298 29.7252C44.5516 29.9007 44.3117 29.9993 44.0616 30H38.4384C38.3151 30.0001 38.193 30.0244 38.0791 30.0717C37.9652 30.119 37.8617 30.1882 37.7745 30.2755C37.6874 30.3628 37.6183 30.4664 37.5712 30.5804C37.5241 30.6944 37.4999 30.8165 37.5 30.9398V40.3102C37.5 40.5594 37.401 40.7985 37.2247 40.9747C37.0485 41.151 36.8094 41.25 36.5602 41.25H27.1899C27.0665 41.2503 26.9443 41.2263 26.8302 41.1792C26.7161 41.1322 26.6125 41.0632 26.5252 40.976C26.4379 40.8888 26.3686 40.7853 26.3214 40.6713C26.2742 40.5573 26.2499 40.4352 26.25 40.3118V15.9382C26.2502 15.6896 26.1516 15.4511 25.976 15.2752C25.8004 15.0992 25.562 15.0003 25.3134 15H23.4366C23.188 15.0003 22.9497 15.0992 22.7741 15.2751C22.5985 15.451 22.4999 15.6894 22.5 15.938V47.812C22.4999 47.9353 22.4755 48.0574 22.4282 48.1713C22.381 48.2852 22.3117 48.3886 22.2244 48.4757C22.1371 48.5628 22.0336 48.6319 21.9196 48.679C21.8056 48.726 21.6835 48.7502 21.5602 48.75H12.1899C11.9406 48.75 11.7015 48.651 11.5253 48.4747C11.349 48.2985 11.25 48.0594 11.25 47.8102V38.4398C11.2502 38.3166 11.2262 38.1946 11.1792 38.0807C11.1323 37.9668 11.0633 37.8632 10.9764 37.776C10.8894 37.6887 10.7861 37.6194 10.6724 37.572C10.5586 37.5247 10.4367 37.5002 10.3134 37.5H8.43657C8.31358 37.5 8.19179 37.4758 8.07816 37.4287C7.96454 37.3816 7.86129 37.3127 7.77432 37.2257C7.68735 37.1387 7.61837 37.0355 7.5713 36.9218C7.52423 36.8082 7.50001 36.6864 7.50001 36.5634V34.6866Z" fill="url(#paint0_linear_149_11)" stroke="#979797" stroke-width="0.234375"/>
<defs>
<linearGradient id="paint0_linear_149_11" x1="16" y1="11" x2="45" y2="49" gradientUnits="userSpaceOnUse">
<stop stop-color="#4000FF"/>
<stop offset="1" stop-color="#F67B00"/>
</linearGradient>
</defs>
</svg>
